<svg xmlns="http://www.w3.org/2000/svg">
    <symbol id="instagram" viewBox="0 0 14 14">
        <path fill="#000" fill-rule="evenodd"
            d="M7 10.818a3.818 3.818 0 1 0 0-7.636 3.818 3.818 0 0 0 0 7.636Zm0-1.272a2.545 2.545 0 1 0 0-5.091 2.545 2.545 0 0 0 0 5.09Z"
            clip-rule="evenodd" />
        <path fill="#000"
            d="M10.818 2.545c-.351 0-.636.428-.636.955 0 .527.285.955.636.955.352 0 .637-.428.637-.955 0-.527-.285-.955-.637-.955Z" />
        <path fill="#000" fill-rule="evenodd"
            d="M.416 2.085C0 2.902 0 3.97 0 6.109v1.782c0 2.138 0 3.207.416 4.024.366.719.95 1.303 1.669 1.669C2.902 14 3.97 14 6.109 14h1.782c2.138 0 3.207 0 4.024-.416a3.817 3.817 0 0 0 1.669-1.669C14 11.1 14 10.03 14 7.891V6.109c0-2.138 0-3.207-.416-4.024A3.817 3.817 0 0 0 11.915.416C11.1 0 10.03 0 7.891 0H6.109C3.971 0 2.902 0 2.085.416A3.818 3.818 0 0 0 .416 2.085Zm7.475-.812H6.109c-1.09 0-1.831 0-2.404.048-.558.045-.843.128-1.042.23A2.546 2.546 0 0 0 1.55 2.662c-.101.199-.184.484-.23 1.042-.046.573-.047 1.314-.047 2.404v1.782c0 1.09 0 1.831.048 2.404.045.558.128.843.23 1.043.243.478.633.868 1.112 1.112.199.101.484.184 1.042.23.573.046 1.314.047 2.404.047h1.782c1.09 0 1.831 0 2.404-.047.558-.046.843-.129 1.043-.23a2.545 2.545 0 0 0 1.112-1.112c.101-.2.184-.485.23-1.043.046-.573.047-1.314.047-2.404V6.109c0-1.09 0-1.831-.047-2.404-.046-.558-.129-.843-.23-1.042a2.545 2.545 0 0 0-1.112-1.113c-.2-.101-.485-.184-1.043-.23-.573-.046-1.314-.047-2.404-.047Z"
            clip-rule="evenodd" />
    </symbol>
    <symbol id="phone" viewBox="0 0 16 16">
        <path fill="#0F0F0F" fill-rule="evenodd"
            d="M11.57 14.822c-1.347-.338-4.104-1.29-6.603-3.788-2.5-2.5-3.451-5.257-3.789-6.604-.193-.774.156-1.52.748-1.943l1.552-1.109a2 2 0 0 1 2.807.489l.977 1.412c.415.599.272 1.42-.321 1.843l-.78.557c.118.451.485 1.377 1.634 2.526C8.944 9.354 9.87 9.72 10.32 9.838l.556-.779a1.333 1.333 0 0 1 1.845-.321l1.411.977a2 2 0 0 1 .489 2.807l-1.109 1.552c-.423.592-1.17.941-1.943.748ZM5.91 10.09c2.272 2.273 4.78 3.136 5.984 3.437.175.044.388-.024.534-.229l1.11-1.552a.667.667 0 0 0-.164-.936l-1.412-.977-.597.836c-.244.342-.695.61-1.22.497-.657-.142-1.87-.596-3.293-2.02C5.43 7.725 4.975 6.513 4.833 5.857c-.113-.526.155-.977.497-1.221l.836-.598-.977-1.411a.667.667 0 0 0-.936-.163L2.701 3.572c-.205.146-.273.358-.23.534.302 1.203 1.165 3.712 3.438 5.985Z"
            clip-rule="evenodd" />
    </symbol>
</svg>