<svg xmlns="http://www.w3.org/2000/svg">
    <symbol id="instagram" viewBox="0 0 14 15">
        <path fill-rule="evenodd"
            d="M7 10.818a3.818 3.818 0 1 0 0-7.636 3.818 3.818 0 0 0 0 7.636Zm0-1.272a2.545 2.545 0 1 0 0-5.091 2.545 2.545 0 0 0 0 5.09Z"
            clip-rule="evenodd" />
        <path
            d="M10.818 2.545c-.351 0-.636.428-.636.955 0 .527.285.955.636.955.352 0 .637-.428.637-.955 0-.527-.285-.955-.637-.955Z" />
        <path fill-rule="evenodd"
            d="M.416 2.085C0 2.902 0 3.97 0 6.109v1.782c0 2.138 0 3.207.416 4.024.366.719.95 1.303 1.669 1.669C2.902 14 3.97 14 6.109 14h1.782c2.138 0 3.207 0 4.024-.416a3.817 3.817 0 0 0 1.669-1.669C14 11.1 14 10.03 14 7.891V6.109c0-2.138 0-3.207-.416-4.024A3.817 3.817 0 0 0 11.915.416C11.1 0 10.03 0 7.891 0H6.109C3.971 0 2.902 0 2.085.416A3.818 3.818 0 0 0 .416 2.085Zm7.475-.812H6.109c-1.09 0-1.831 0-2.404.048-.558.045-.843.128-1.042.23A2.546 2.546 0 0 0 1.55 2.662c-.101.199-.184.484-.23 1.042-.046.573-.047 1.314-.047 2.404v1.782c0 1.09 0 1.831.048 2.404.045.558.128.843.23 1.043.243.478.633.868 1.112 1.112.199.101.484.184 1.042.23.573.046 1.314.047 2.404.047h1.782c1.09 0 1.831 0 2.404-.047.558-.046.843-.129 1.043-.23a2.545 2.545 0 0 0 1.112-1.112c.101-.2.184-.485.23-1.043.046-.573.047-1.314.047-2.404V6.109c0-1.09 0-1.831-.047-2.404-.046-.558-.129-.843-.23-1.042a2.545 2.545 0 0 0-1.112-1.113c-.2-.101-.485-.184-1.043-.23-.573-.046-1.314-.047-2.404-.047Z"
            clip-rule="evenodd" />
    </symbol>
    <symbol id="phone" viewBox="0 0 16 16">
        <path fill-rule="evenodd"
            d="M11.57 14.822c-1.347-.338-4.104-1.29-6.603-3.788-2.5-2.5-3.451-5.257-3.789-6.604-.193-.774.156-1.52.748-1.943l1.552-1.109a2 2 0 0 1 2.807.489l.977 1.412c.415.599.272 1.42-.321 1.843l-.78.557c.118.451.485 1.377 1.634 2.526C8.944 9.354 9.87 9.72 10.32 9.838l.556-.779a1.333 1.333 0 0 1 1.845-.321l1.411.977a2 2 0 0 1 .489 2.807l-1.109 1.552c-.423.592-1.17.941-1.943.748ZM5.91 10.09c2.272 2.273 4.78 3.136 5.984 3.437.175.044.388-.024.534-.229l1.11-1.552a.667.667 0 0 0-.164-.936l-1.412-.977-.597.836c-.244.342-.695.61-1.22.497-.657-.142-1.87-.596-3.293-2.02C5.43 7.725 4.975 6.513 4.833 5.857c-.113-.526.155-.977.497-1.221l.836-.598-.977-1.411a.667.667 0 0 0-.936-.163L2.701 3.572c-.205.146-.273.358-.23.534.302 1.203 1.165 3.712 3.438 5.985Z"
            clip-rule="evenodd" />
    </symbol>
    <symbol id="facebook" viewBox="0 0 22 22">
        <path
            d="M16.1.92 13.552.918c-2.86 0-4.708 1.948-4.708 4.963v2.288h-2.56c-.22 0-.4.184-.4.411v3.316c0 .227.18.411.4.411h2.56v8.366c0 .227.18.411.4.411h3.34c.221 0 .4-.184.4-.41v-8.367h2.993c.221 0 .4-.184.4-.411l.002-3.316a.417.417 0 0 0-.117-.29.395.395 0 0 0-.284-.121h-2.994v-1.94c0-.932.217-1.405 1.399-1.405l1.715-.001c.22 0 .4-.184.4-.411V1.332a.406.406 0 0 0-.4-.411Z" />
    </symbol>
    <symbol id="telegram" viewBox="0 0 29 29">
        <path
            d="m18.578 20.422 2.297-10.828c.203-.953-.344-1.328-.969-1.094l-13.5 5.203c-.922.359-.906.875-.156 1.109l3.453 1.078 8.016-5.047c.375-.25.719-.109.438.141l-6.484 5.859-.25 3.563c.359 0 .516-.156.703-.344l1.687-1.625 3.5 2.578c.641.359 1.094.172 1.266-.594zM28 14c0 7.734-6.266 14-14 14S0 21.734 0 14 6.266 0 14 0s14 6.266 14 14z" />
    </symbol>
    <symbol id="cross" viewBox="0 0 25 25">
        <path stroke-linecap="round" stroke-width="2"
            d="m1.5 1 11.25 10.75M24 22.5 12.75 11.75m0 0L24 1M12.75 11.75 1.5 22.5" />
    </symbol>
    <symbol id='messenger' viewBox="0 0 36 36">
        <path fill-rule="evenodd"
            d="M18.5 5C11.044 5 5 10.596 5 17.5c0 3.934 1.963 7.443 5.031 9.734V32l4.597-2.523c1.226.34 2.526.523 3.872.523C25.956 30 32 24.404 32 17.5S25.956 5 18.5 5Zm1.342 16.833-3.438-3.666-6.708 3.666L17.075 14l3.521 3.667L27.221 14l-7.38 7.833Z"
            clip-rule="evenodd" />
    </symbol>
    <symbol id="services-1" viewBox="0 0 499 380">
        <path
            d="M145.647 130.926c14.835-.038 34.707 3.903 34.707 3.903l31.253 3.308-.255-13.323-31.663-10.329-40.187-11.571 6.145 28.012z"
            style="fill:#f7ba57" />
        <path
            d="M177.391 124.356s-18.615-8.987-34.846-10.605l3.102 17.175c14.835-.038 34.707 3.903 34.707 3.903l31.253 3.308-.146-7.626-34.07-6.155z"
            style="fill:#f2a446" />
        <path
            d="M414.232 211.496c-2.758-12.889-6.263-25.948-9.354-37.469-5.436-20.26-9.73-36.263-8.454-44.156l1.23.198c-1.234 7.63 3.243 24.316 8.427 43.635 3.096 11.536 6.603 24.61 9.367 37.532l-1.216.26z"
            style="fill:#a09a48" />
        <path
            d="m409.283 186.493-1.221-.244c5.848-29.322 26.594-47.2 26.802-47.377l.805.949c-.204.174-20.625 17.789-26.386 46.672zM406.324 178.796c-.09-.153-9.112-15.408-23.001-26.021l.74-.928c14.102 10.774 23.246 26.243 23.336 26.398l-1.075.551zM396.666 139.077c-8.05-29.66-15.542-33.511-15.617-33.546l.534-1.125c.325.154 8.085 4.136 16.285 34.345l-1.202.326z"
            style="fill:#a09a48" />
        <path
            d="m396.724 134.159-1.218-.263c5.983-27.674 20.518-39.84 20.663-39.958l.79.963c-.142.117-14.351 12.039-20.235 39.258zM373.456 139.266c-7.74.591 5.27 14.425 26.091 29.537l.612-1.572c-3.873-23.358-15.1-28.851-26.703-27.965z"
            style="fill:#a09a48" />
        <path
            d="M418.056 88.875c-2.308.521-19.182 20.343-21.007 38.13l.738 2.11c12.507-15.029 21.241-24.615 22.552-30.79 1.312-6.175.026-9.971-2.283-9.45zM444.321 136.631c-4.936-5.828-20.236 6.585-26.36 22.935l-3.099 9.004c5.938-7.425 26.667-11.079 31.818-14.798 5.15-3.721 2.577-11.314-2.359-17.141zM393.56 128.777c.041-19.735-6.282-27.078-15.631-27.076-9.349.002 5.793 5.242 9.952 14.567 4.157 9.326 5.679 12.509 5.679 12.509z"
            style="fill:#a09a48" />
        <path
            d="M422.897 149.857c4.718 2.712 11.592 4.421 19.25 4.421 1.363 0 2.7-.055 4.006-.159.19-.116.366-.232.526-.348 5.151-3.72 2.578-11.313-2.359-17.141-3.891-4.594-14.223 2.154-21.423 13.227zM387.9 142.739c-4.352-3.025-9.362-3.861-14.444-3.473-6.934.529 2.791 11.688 19.86 24.871 2.048-4.961.28-13.2-4.936-20.744-.156-.225-.321-.434-.48-.654zM418.056 88.875c-.038.009-.091.037-.138.056-.517.354-1.028.742-1.53 1.172-1.022.958-2.377 2.435-3.906 4.324-1.897 2.671-3.505 5.913-4.613 9.552-1.57 5.155-1.863 10.207-1.093 14.406 7.58-9.083 12.596-15.504 13.564-20.059 1.311-6.176.025-9.972-2.284-9.451zM387.279 115.091c1.544-1.59 2.41-3.765 2.597-6.211-2.758-5.047-6.913-7.181-11.947-7.179-8.948.002 4.529 4.805 9.35 13.39z"
            style="fill:#b5aa48" />
        <path
            d="m421.316 158.255 1.136.947c2.841-5.492 18.37-17.991 18.37-17.991s-9.469 3.787-19.506 17.044zM403.332 115.957l1.076.552c1.281-4.892 11.427-17.654 11.427-17.654s-6.875 4.722-12.503 17.102zM396.875 161.415l-.716 1.007c-3.445-5.839-18.591-19.128-18.591-19.128s8.428 4.027 19.307 18.121z"
            style="fill:#a09a48" />
        <path d="M412.925 200.942s-4.491 2.86-8.791 12.153l24.396.715c-3.166-8.341-15.605-12.868-15.605-12.868z"
            style="fill:#7f3c44" />
        <path
            d="M433.097 209.584c-20.6-4.284-32.794 0-32.794 0s-1.712 12.32 6.382 23.113h20.133c6.539-10.273 6.279-23.113 6.279-23.113z"
            style="fill:#c1a78a" />
        <path
            d="M433.097 209.584c-10.472-2.178-18.765-2.14-24.395-1.578a29.361 29.361 0 0 0-.075 2.045c0 11.767 6.953 21.305 15.529 21.305 1.331 0 2.616-.255 3.849-.687 5.318-9.857 5.092-21.085 5.092-21.085z"
            style="fill:#e0c7ad" />
        <path d="M428.271 238.302h-5.188l5.448 74.252h1.557zM394.959 238.302h5.189l-4.93 74.252h-1.556z"
            style="fill:#bca7a7" />
        <path d="M440.362 233.632c-16.063-2.324-31.946-2.38-47.634 0v6.538h47.634v-6.538z" style="fill:#dbc8c8" />
        <path d="M438.442 238.302h-5.189l5.448 74.252h1.557zM405.129 238.302h5.189l-4.929 74.252h-1.557z"
            style="fill:#dbc8c8" />
        <path d="M408.059 232.105c-5.13.265-10.242.754-15.331 1.526v6.538h15.331v-8.064z" style="fill:#bca7a7" />
        <path d="M137.436 299.478h265.566v13.076H137.436z" style="fill:#49363d" />
        <path
            d="M208.41 140.551c-3.337-13.632-2.282-18.468-2.282-18.468l8.653 3.245s11.109 2.023 13.619 3.436c2.51 1.413 7.132 7.808 7.132 7.808l-16.662.005-10.46 3.974z"
            style="fill:#efdfdf" />
        <path
            d="M218.239 135.577c-7.382-1.566-9.865-6.896-12.259-10.364.069 2.81.558 7.688 2.431 15.339l10.46-3.974 16.662-.005s-.771-1.065-1.848-2.417c-3.365.506-11.042 2.354-15.446 1.421z"
            style="fill:#d6bdbd" />
        <path
            d="M348.622 249.82H135.671l-1.998-72.73c-.611-22.237 17.249-40.594 39.494-40.594H283.2c25.82 0 48.444 17.588 54.483 42.692 5.556 23.097 9.401 46.594 10.939 70.632z"
            style="fill:#8758af" />
        <path
            d="M298.049 161.711c-.416-2.15-1.653-3.893-2.763-3.893-1.11 0-1.672 1.743-1.256 3.893.416 2.15 1.653 3.893 2.763 3.893 1.11.001 1.672-1.742 1.256-3.893zM311.684 219.946c-.416-2.15-1.653-3.894-2.763-3.894-1.11 0-1.672 1.743-1.256 3.894.416 2.15 1.653 3.894 2.763 3.894 1.11 0 1.672-1.743 1.256-3.894zM251.177 161.711c-.416-2.15-1.653-3.893-2.763-3.893s-1.672 1.743-1.256 3.893c.416 2.15 1.653 3.893 2.763 3.893 1.11.001 1.672-1.742 1.256-3.893zM264.812 219.946c-.416-2.15-1.653-3.894-2.763-3.894-1.11 0-1.672 1.743-1.256 3.894.416 2.15 1.653 3.894 2.763 3.894 1.11 0 1.672-1.743 1.256-3.894zM281.004 191.965c-.416-2.15-1.653-3.893-2.763-3.893-1.11 0-1.672 1.743-1.256 3.893.416 2.15 1.653 3.893 2.763 3.893 1.11.001 1.673-1.743 1.256-3.893zM198.339 161.711c-.416-2.15-1.653-3.893-2.763-3.893-1.11 0-1.672 1.743-1.256 3.893.416 2.15 1.653 3.893 2.763 3.893 1.11.001 1.672-1.742 1.256-3.893zM211.975 219.946c-.416-2.15-1.653-3.894-2.763-3.894-1.11 0-1.672 1.743-1.256 3.894.416 2.15 1.653 3.894 2.763 3.894 1.109 0 1.672-1.743 1.256-3.894zM228.167 191.965c-.416-2.15-1.653-3.893-2.763-3.893-1.11 0-1.672 1.743-1.256 3.893.416 2.15 1.653 3.893 2.763 3.893 1.11.001 1.672-1.743 1.256-3.893zM234.395 136.496h-61.228c-12.461 0-23.543 5.762-30.776 14.738 10.68 2.458 84.94-6.94 92.004-14.738z"
            style="fill:#744c9e" />
        <path
            d="M254.151 226.58c-56.55-18.376-95.135-55.61-86.181-83.166a26.532 26.532 0 0 1 3.417-6.871c-21.409.949-38.308 18.908-37.714 40.548l1.998 72.73h212.951a379.358 379.358 0 0 0-1.577-17.93c-22.71 7.603-57.109 6.317-92.894-5.311z"
            style="fill:#744c9e" />
        <path
            d="m70.339 286.092 6.871-.039s-2.784 9.23-3.421 16.836l-6.063.394c3.056-4.5 2.613-17.191 2.613-17.191zM109.11 285.132l-6.727 1.992s1.053 8.885.297 16.699l5.871-1.379c-2.179-3.831.559-17.312.559-17.312z"
            style="fill:#99476c" />
        <path
            d="M49.5 312.554H75s1.29-11.098-3.266-12.832c-4.555-1.734-4.289 6.936-15.219 8.15-3.392.377-6.788 3.469-7.015 4.682zM124.148 312.554H98.329s1.745-9.805 6.834-11.337c5.089-1.532 2.435 6.128 13.169 7.2 3.332.334 5.92 3.065 5.816 4.137z"
            style="fill:#f4deba" />
        <path
            d="M98.381 173.146c-4.974 20.229-.531 125.631-.531 125.631l14.582-2.651s13.541-109.936 16.808-126.413l-30.859 3.433z"
            style="fill:#5c8ebc" />
        <path
            d="m111.676 172.08-13.294 1.066c-4.974 20.229-.531 125.631-.531 125.631l5.501-1c-2.691-14.629 1.8-112.521 8.324-125.697z"
            style="fill:#3f7099" />
        <path
            d="m64.52 290.444 16.097 3.788s12.31-82.003 16.991-99.237l8.731-.398c5.06-15.263 14.092-24.791 22.594-23.084 0 0 5.595-26.261 20.518-44.169 0 0 .11-19.455-2.542-22.108-2.653-2.653-28.299-12.712-43.221 3.537-14.923 16.25-29.183 48.558-33.162 65.661-8.09 34.765-6.006 116.01-6.006 116.01z"
            style="fill:#5c8ebc" />
        <path
            d="M146.909 105.235c-2.653-2.653-28.299-12.712-43.221 3.537-12.918 14.066-25.334 40.16-31.019 58.014 13.659 1.249 30.285-2.365 46.214-11.05 9.007-4.912 30.679-47.848 28.026-50.501z"
            style="fill:#5385aa" />
        <path
            d="M103.687 108.772c-14.923 16.25-29.183 48.558-33.162 65.661-8.089 34.765-6.006 116.01-6.006 116.01l3.976.936c-.9-19.361.352-42.702 4.057-67.564 7.204-48.335 23.793-62.739 30.422-75.807-.009-.382 4.536-14.082 4.536-14.469 0-12.394 4.663-22.442 10.416-22.442 2.605 0 4.98 2.074 6.807 5.479 3.717-7.932 9.59-13.055 16.203-13.055 1.726 0 3.401.352 5.001 1.008-5.446-3.3-28.435-10.799-42.25 4.243z"
            style="fill:#3f7099" />
        <path
            d="M91.196 161.39c-10.17-5.527-10.391-10.17-10.391-10.17s21.573-48.42 32.057-47.754c16.046 1.02-14.404 61.22-21.666 57.924z"
            style="fill:#ef9348" />
        <path
            d="M143.758 103.743c3.979 11.607.4 24.854-6.577 35.87l-20.892-10.114s8.456-17.521 2.653-27.138c7.159-2.876 15.545-1.005 24.816 1.382z"
            style="fill:#f7ba57" />
        <path
            d="M118.942 102.361c3.411 5.652 1.896 14.031.067 19.982 1.257.076 2.537.119 3.84.119 9.066 0 17.14-1.902 22.38-4.866.462-4.714.055-9.404-1.471-13.853-9.271-2.387-17.657-4.258-24.816-1.382z"
            style="fill:#ef9348" />
        <path
            d="M150.778 170.454c5.749-7.149 7.499-13.787 7.499-13.787l-27.063-16.17s-13.057-32.814-15.042-35.404c-4.069-5.309-12.069 2.144-16 9.463-3.932 7.319 4.261 31.7 16.07 44.325 1.75 1.871 34.536 11.573 34.536 11.573z"
            style="fill:#f7ba57" />
        <path
            d="M126.278 154.713c-11.808-12.624-20.002-37.005-16.07-44.325a32.237 32.237 0 0 1 4.637-6.51c-4.297-2.606-11.134 4.087-14.674 10.677-3.932 7.319 4.261 31.7 16.07 44.325 1.751 1.872 34.537 11.574 34.537 11.574a45.287 45.287 0 0 0 4.055-5.964c-9.542-2.896-27.279-8.413-28.555-9.777z"
            style="fill:#f2a446" />
        <path
            d="M125.022 103.356c5.417-4.753 4.311-14.923 4.311-14.923l16.139 3.758c-.326 4.811-1.376 10.147-2.874 15.807 0 0-2.677 7.41-6.964 7.075-7.075-.553-10.612-11.717-10.612-11.717z"
            style="fill:#dd704a" />
        <path
            d="m124.364 101.156 3.03-.473s5.113 12.783 9.564 11.931c4.45-.852 6.25-7.007 6.25-7.007l.758.379s-.284 9.09-3.03 13.067l-3.788-3.03-5.303 3.03s-6.344-5.113-7.481-17.897z"
            style="fill:#e5ddcf" />
        <path
            d="M130.328 83.679c-.221 2.763-1.769 17.576-.884 18.681.884 1.105 8.291 6.964 11.386 6.854 3.095-.111 6.19-3.427 6.964-5.417.774-1.99 4.898-15.822 5.195-18.902.514-5.341-22.299-2.795-22.661-1.216z"
            style="fill:#ffa77b" />
        <path
            d="M128.891 96.613c-3.316-9.175-2.1-13.486-2.1-13.486l7.406-2.542c-.787 3.354-.77 5.848-2.045 9.396-.176.49-1.693-.715-1.879-.221-.523 1.385-.776 5.433-1.382 6.853z"
            style="fill:#662828" />
        <path
            d="M149.23 69.777c-5.306-6.172-22.219 1.692-22.993 3.21-.774 1.518-1.437 3.593.332 12.504 7.417-2.705 15.935-5.654 25.867-.779 0 0 2.1-8.763-3.206-14.935z"
            style="fill:#f4deba" />
        <path
            d="M134.43 73.768c.7-2.708 2.71-4.813 5.425-6.092-6.326.925-13.133 4.361-13.617 5.311-.774 1.518-1.437 3.593.332 12.504 3.204-1.169 6.615-2.38 10.256-2.989-2.187-2.599-3.172-5.732-2.396-8.734z"
            style="fill:#e5c595" />
        <path
            d="M166.475 80.474c-5.527-4.422-25.369-2.321-36.479 3.814 7.848-2.432 24.872-4.035 21.998 5.472 11.054-2.101 20.008-4.864 14.481-9.286z"
            style="fill:#aa445a" />
        <path d="m150.807 87.923 5.255 1.349s-.284 6.96-2.059 7.741c-1.775.781-5.042-.213-5.042-.213l1.846-8.877z"
            style="fill:#ffa77b" />
        <path d="m156.805 89.843-19.211-4.481-9.405 1.203-.144-1.127 9.607-1.23 19.41 4.527z" style="fill:#7c4c4c" />
        <path
            d="M141.392 95.642c-1.609 0-3.093-.444-4.051-1.019-.78-.468-1.269-1.034-1.415-1.637-.359-1.495 1.159-7.218 1.467-8.35l1.096.297c-.684 2.513-1.685 6.85-1.458 7.786.069.286.403.634.894.929 1.156.692 3.223 1.162 5.236.637.646-.186 1.826-3.736 2.525-7.595l1.118.202c-.435 2.405-1.632 8.045-3.358 8.493a8.153 8.153 0 0 1-2.054.257zM151.746 97.981c-1.45 0-2.734-.41-3.554-.877-.827-.471-1.346-1.06-1.502-1.701-.366-1.496.965-7.321 1.236-8.472l1.105.26c-.601 2.566-1.47 6.991-1.238 7.944.078.315.437.682.962.982 1.094.625 3.007 1.01 4.81.462.609-.263 1.656-3.887 2.237-7.753l1.123.169c-.366 2.442-1.396 8.175-3.029 8.672a7.447 7.447 0 0 1-2.15.314z"
            style="fill:#7c4c4c" />
        <path d="M147.655 87.908s1.658 10.28.663 11.275c-.995.995-5.085 0-5.085 0l4.422-11.275z" style="fill:#dd704a" />
        <path d="M147.149 89.047s1.376 8.53.55 9.355c-.826.826-4.219 0-4.219 0l3.669-9.355z" style="fill:#ffa77b" />
        <path
            d="M224.139 143.194c2.528 4.211 4.89 1.703 4.274.022-1.331-3.631-4.59-4.17-3.4-7.848.664-2.052.045-5.524-4.291-6.339-4.336-.815-9.958 1.363-6.875 4.467 3.083 3.105 8.269 6.329 10.292 9.698z"
            style="fill:#efdfdf" />
        <path
            d="m194.909 172.337 4.386 4.021a3.481 3.481 0 0 0 4.773-.065l6.59-6.377a3.48 3.48 0 0 0-.179-5.164l-4.232-3.564-11.338 11.149z"
            style="fill:#513f46" />
        <path
            d="m204.852 172.526 6.579-6.469a3.44 3.44 0 0 0-.952-1.306l-4.232-3.564-11.338 11.149 4.386 4.021a3.481 3.481 0 0 0 4.773-.065l2.38-2.303-1.596-1.463z"
            style="fill:#352a2f" />
        <path
            d="m155.752 178.247 11.441 7.296 24.706-11.441 2.579 2.21c1.166 1 2.905.938 3.997-.143l11.874-11.752a2.952 2.952 0 0 0-.155-4.339l-23.103-19.802-12.104 1.161-5.638 5.472 2.487 13.431-16.084 17.907z"
            style="fill:#685159" />
        <path
            d="M190.506 167.515c-8.279-8.676-13.633-18.288-15.186-26.109l-.333.032-5.638 5.472 2.487 13.431-16.084 17.908 11.441 7.296 24.706-11.441 2.579 2.21c1.166 1 2.905.938 3.997-.143l.807-.799a73.82 73.82 0 0 1-8.776-7.857z"
            style="fill:#513f46" />
        <path d="m174.456 162.516 9.564 9.28-15.435 8.901-7.102-3.788z" style="fill:#352a2f" />
        <path
            d="M142.545 169.05c3.814-11.773 8.996-17.992 8.996-17.992l11.01 7.789 8.456-2.819.829 4.311s7.733 6.649 8.396 8.805c.663 2.155-.829 5.14-2.156 4.808-1.326-.332-2.653-.829-2.653-.829s-5.743 6.616-10.386 5.289c-4.643-1.326-10.446-5.306-10.446-5.306l-12.046-4.056z"
            style="fill:#efdfdf" />
        <path
            d="M180.232 169.145c-.663-2.156-8.396-8.805-8.396-8.805l-.829-4.311-5.65 1.883c-.37 1.84-1.176 3.47-2.473 4.735-3.941 3.841-11.078 3.19-17.449-1.09a72.33 72.33 0 0 0-2.889 7.493l12.046 4.057s5.803 3.979 10.446 5.306 10.386-5.289 10.386-5.289 1.327.497 2.653.829c1.326.332 2.818-2.653 2.155-4.808z"
            style="fill:#d6bdbd" />
        <path
            d="M131.606 90.548c-1.629-5.088-2.195-7.381-4.384-6.747-2.189.634-1.741 7.253.804 8.331 2.545 1.077 3.58-1.584 3.58-1.584z"
            style="fill:#ffa77b" />
        <path
            d="M130.453 90.163c-1.048-3.273-1.412-4.748-2.82-4.34-1.408.408-1.12 4.666.517 5.359 1.637.693 2.303-1.019 2.303-1.019z"
            style="fill:#c64a4a" />
        <path
            d="M130.768 89.99c-.685-2.139-.923-3.103-1.843-2.836-.92.266-.732 3.049.338 3.502 1.07.452 1.505-.666 1.505-.666z"
            style="fill:#ffa77b" />
        <path
            d="M333.289 197.931c-.019-.001-.039.001-.058.001-14.635-.285-17.6 102.181-17.6 102.181H361.626l6.567-102.182h-34.904z"
            style="fill:#684191" />
        <path
            d="M333.86 196.583c-.02-.001-.039.001-.058.001-14.683-.311-.561 111.768-.561 111.768H379.236l2.179-111.768H333.86z"
            style="fill:#73469b" />
        <path d="M371.453 308.351h-171.44v-64.757h155.305c8.922 21 14.989 42.472 16.135 64.757z" style="fill:#915cb7" />
        <path
            d="M300.221 297.747c-50.337-11.095-89.189-34.065-94.035-54.153h-6.172v64.757h171.44c-.094-1.824-.232-3.64-.391-5.453-19.568 2.192-44.458.665-70.842-5.151z"
            style="fill:#8758af" />
        <path d="M219.316 308.351h-26.152l-8.614-64.757h23.69c4.155 21 7.937 42.472 11.076 64.757z"
            style="fill:#73469b" />
        <path d="M375.189 308.351h37.671s-7.161-111.456-32.69-111.768c-25.529-.311-4.981 111.768-4.981 111.768z"
            style="fill:#915cb7" />
        <path
            d="M135.023 196.583c-.02-.001-.038.001-.058.001-14.683-.311-.561 111.768-.561 111.768H180.399l2.179-111.768h-47.555z"
            style="fill:#684191" />
        <path d="M176.352 308.351h37.671s-7.161-111.456-32.69-111.768c-25.529-.311-4.981 111.768-4.981 111.768z"
            style="fill:#915cb7" />
        <path
            d="M229.034 214.007c-1.853-7.272-9.316-2.111-9.31 3.398.008 7.273 8.191 17.285 16.181 14.9 9.663-2.885 6.27-17.214 2.744-23.446-2.935-5.189-7.226-9.402-11.597-13.385-4.901-4.465-14.127-8.488-15.287-15.44-.13-.777-1.132-.555-.978.369 1.052 6.3 6.57 10.282 11.055 14.324 5.663 5.103 11.484 10.322 14.715 17.386 2.081 4.55 5.148 21.467-4.139 18.22-3.399-1.188-6.582-5.05-8.066-8.156-.709-1.484-1.223-3.175-1.334-4.823-.127-1.889 1.779-6.176 2.725-2.467.209.828 3.508-.026 3.291-.88zM255.287 191.717c-1.472-10.406 13.316-5.552 17.549-2.109 3.478 2.829 5.815 6.896 6.778 11.25.897 4.057.76 8.757-1.295 12.455-3.888 6.996-13.239 4.45-18.916 1.596-15.19-7.635-22.779-24.339-36.197-34.227-.758-.558-1.664-.29-1.121.11 11.901 8.771 17.013 23.456 29.017 32.076 7.387 5.305 20.089 10.086 28.005 3.014 9.353-8.356 2.922-24.737-6.722-29.722-5.836-3.017-21.904-4.249-20.392 6.44.103.715 3.422.023 3.294-.883z"
            style="fill:#efdfdf" />
        <path
            d="M287.361 222.102c-1.721-2.87.285-4.287 6.015-4.252a8 8 0 0 1 2.986 2.684c1.558 2.5.997 5.367-.198 7.918-3.783 8.072-14.072 10.873-21.98 7.78-9.302-3.639-19.307-10.718-25.111-18.605-.566-.769-1.493-.22-1.274.077 10.069 13.681 28.209 28.403 45.178 17.045 6.063-4.058 12.249-15.23 2.103-18.597-4.249-1.41-13.628.669-11.011 6.832.316.748 3.525-.333 3.292-.882z"
            style="fill:#efdfdf" />
        <path d="M238.658 183.222h1.492v1.658h-1.492z" style="fill:#efdfdf" transform="rotate(25.551 239.42 184.061)" />
        <path d="M207.42 216.145h.805v.894h-.805z" style="fill:#efdfdf" transform="rotate(25.565 207.846 216.615)" />
        <path d="M246.126 233.331h.999v1.111h-.999z" style="fill:#efdfdf" transform="rotate(25.538 246.621 233.875)" />
        <path d="M213.659 235.633h1.492v1.658h-1.492z" style="fill:#efdfdf"
            transform="rotate(25.545 214.427 236.493)" />
        <path d="M261.03 207.965h1.153v1.281h-1.153z" style="fill:#efdfdf" transform="rotate(64.691 261.615 208.616)" />
        <path d="M313.205 234.195h1.153v1.281h-1.153z" style="fill:#efdfdf"
            transform="rotate(64.691 313.791 234.847)" />
        <path d="M218.429 172.195h1.492v1.658h-1.492z" style="fill:#efdfdf"
            transform="rotate(25.555 219.155 173.002)" />
        <path d="M219.838 204.528h1.492v1.658h-1.492z" style="fill:#efdfdf"
            transform="rotate(25.555 220.564 205.332)" />
        <path
            d="m239.486 179.384-.313-1.228-1.196.268.313 1.228zM218.76 179.715l-.313-1.228-1.197.268.313 1.229zM278.203 184.192l-.313-1.228-1.196.268.312 1.229zM312.292 212.978l-.313-1.228-1.197.268.313 1.229z"
            style="fill:#efdfdf" />
        <path
            d="m98.182 196.652-7.244-6.96s5.255 3.125 8.238 3.409c2.983.284 16.334-2.699 16.334-2.699l-11.363 5.682-5.965.568z"
            style="fill:#3f7099" />
        <path
            d="m145.284 85.296-6.337-1.471s.566-1.584 1.415-1.924c.849-.34 4.357.736 4.922 1.245.566.509 0 2.15 0 2.15zM155.17 87.639l-6.281-1.458s.561-1.57 1.402-1.907c.841-.336 4.318.729 4.879 1.234.561.505 0 2.131 0 2.131z"
            style="fill:#662828" />
        <path
            d="M152.773 92.14c.199-.86-.085-1.66-.634-1.787s-1.156.467-1.355 1.326c-.199.86.085 1.66.634 1.787s1.156-.466 1.355-1.326zM143.257 89.796c.199-.86-.085-1.66-.634-1.787s-1.156.467-1.355 1.326c-.199.86.085 1.66.634 1.787.549.128 1.155-.466 1.355-1.326z"
            style="fill:#3f3335" />
        <path d="m187.097 141.826 20.737 20.169-12.215 12.642 1.421.852 12.499-13.636z" style="fill:#513f46" />
        <path
            d="M121.145 122.841c.972 0 1.933-.025 2.881-.07-3.39-8.209-6.901-16.433-7.854-17.678-4.069-5.309-12.069 2.143-16 9.463-.495.921-.797 2.112-.924 3.515 5.461 2.933 13.248 4.77 21.897 4.77z"
            style="fill:#f2a446" />
        <path d="M187.985 145.093a1.74 1.74 0 1 0-3.48 0 1.74 1.74 0 0 0 3.48 0z" style="fill:#513f46" />
        <circle cx="189.441" cy="148.076" r="1.42" style="fill:#513f46" />
        <path d="M190.328 148.076a.888.888 0 1 0-1.776 0 .888.888 0 0 0 1.776 0z" style="fill:#f2a446" />
        <path
            d="m200.918 165.229-1.228-1.175-6.804 7.14 1.227 1.174zM198.551 162.956l-1.228-1.175-6.805 7.14 1.228 1.175zM196.183 160.683l-1.227-1.174-6.805 7.14 1.228 1.174zM193.816 158.411l-1.227-1.175-6.805 7.14 1.227 1.175z"
            style="fill:#513f46" />
        <path
            d="M391.222 216.574c-1.057-8.706-5.822-15.25-10.644-14.616-4.822.634-7.875 8.206-6.818 16.912 1.057 8.706 5.822 15.25 10.644 14.616 4.822-.634 7.875-8.206 6.818-16.912z"
            style="fill:#73469b" />
        <path
            d="M390.495 216.061c-.831-6.849-4.58-11.996-8.373-11.497-3.793.499-6.195 6.455-5.364 13.303.831 6.849 4.58 11.996 8.373 11.497 3.793-.498 6.195-6.454 5.364-13.303z"
            style="fill:#915cb7" />
        <path
            d="M193.507 216.574c-1.057-8.706-5.822-15.25-10.644-14.616-4.822.634-7.875 8.206-6.818 16.912 1.057 8.706 5.822 15.25 10.644 14.616 4.822-.634 7.875-8.206 6.818-16.912z"
            style="fill:#73469b" />
        <path
            d="M192.78 216.061c-.831-6.849-4.58-11.996-8.373-11.497-3.793.499-6.195 6.455-5.364 13.303.831 6.849 4.58 11.996 8.373 11.497 3.793-.498 6.195-6.454 5.364-13.303z"
            style="fill:#915cb7" />
        <path d="m422.026 209.578 8.948.994s-.284 9.09-3.267 9.516c-2.983.426-5.681-10.51-5.681-10.51z"
            style="fill:#ede1d6" />
        <path d="m143.65 101.677-6.098-3.672s-2.313 1.522-1.205 3.523c1.153 2.083 4.493 2.422 4.493 2.422l2.81-2.273z"
            style="fill:#3f3335" />
        <path d="m141.29 102.898 1.711-1.384-5.43-3.27s-.992.654-1.268 1.651l4.987 3.003z" style="fill:#f4ede4" />
    </symbol>
    <symbol id="services-4" viewBox="0 0 45 78">
        <g clip-path="url(#a)">
            <path fill="#263B7F"
                d="m42.3 74.98-.868.057h-.15s-.803-1.268-2.368-3.605A37.806 37.806 0 0 1 34.97 63.6a6.55 6.55 0 0 1 .296-5.633s-1.361-2.762-2.387-5.62c-.907-2.534-2.578-7.032-2.946-8.027l-.072-.196s-.48 2.414-.763 4.087c0 .145-.06.348-.099.595-.394 2.496-1.38 9.383-1.38 9.383 1.19 2.851.618 5.924-.402 8.388-1.019 2.465-4.122 8.205-4.122 8.205h-.073l-.697.127s.914-19.989.967-24.126c.052-4.137.085-12.919.085-12.919l.868-2.996v-.279c0-.26-.079-.697-.144-1.267v-.228c-.224-1.99-.585-5.303-.829-7.97-.079-.95-.151-1.819-.19-2.535-.04-.709-.04-1.42 0-2.129.046-.982.144-1.9.262-2.775.257-1.793.58-3.085.58-3.085.657-.133 1.314-.285 2.011-.444-.105.786-.19 2.078-.25 3.409-.052.97-.085 1.964-.118 2.794-.033 1.172-.053 2.015-.053 2.015l8.595-.12c.004-.706.048-1.41.131-2.11.104-.884.256-1.761.454-2.63.238-1.07.532-2.127.88-3.168l1.71.362c-.164.633-.355 1.717-.539 2.933a72.354 72.354 0 0 0-.361 2.68c-.165 1.42-.296 2.788-.336 3.738-.059 1.267 0 3.7.092 5.829.046 1.223.099 2.35.138 3.13v.221c0 .532.04.856.04.856s0 .14.052.399c0 .063 0 .14.033.215.44 3.263 2.492 18.532 2.847 22.175.375 4.112 3.051 18.095 3.051 18.095Z" />
            <path fill="#212A60"
                d="M29.031 48.807c-.394 2.496-1.38 9.383-1.38 9.383 1.19 2.851.618 5.924-.402 8.389-1.019 2.464-4.155 8.204-4.155 8.204h-.073c.974-2.274 3.722-8.87 4.13-11.442a16.839 16.839 0 0 0 0-5.544l1.88-8.99ZM41.432 75.037h-.15s-.803-1.268-2.368-3.605a37.816 37.816 0 0 1-3.945-7.831 6.555 6.555 0 0 1 .296-5.633s-1.361-2.762-2.387-5.62c-.908-2.534-2.578-7.032-2.946-8.027l.053-.221 6.24 13.653c-.665 4.359.782 7.14 1.565 9.934.618 2.218 2.728 5.83 3.642 7.35Z" />
            <path fill="#CACED7"
                d="M35.541 14.328c0 .039 0 .083-.046.127a27.185 27.185 0 0 0-1.387 7.8l-8.62.139s.125-6.044.42-8.237l1.158-.26c1.098-.247 2.235-.5 3.024-.633-.008.257.017.515.073.767a1 1 0 0 0 .486.549c.228.117.493.147.743.084.849-.12 1.131-.507 1.131-.583v-.36l3.018.607ZM23.074 19.448a23.056 23.056 0 0 0-.066 3.168c.04.696.112 1.564.19 2.534h-.052a4.082 4.082 0 0 1-.98-.133 6.433 6.433 0 0 1-2.742-1.553c-.059-3.731.835-6.646 1.19-7.159.474-.684.803-1.153 3.052-1.615l.197-.045a35.142 35.142 0 0 0-.79 4.803ZM42.472 19.213a35.017 35.017 0 0 1-.612 4.967 23.47 23.47 0 0 1-4.13.767l-.907.108a35.84 35.84 0 0 0-.703 4.815c-.073-1.818-.132-3.802-.112-5.189v-.634c.194-3.14.607-6.264 1.236-9.351 1.71.367 5.234 1.065 5.228 4.517Z" />
            <path fill="#AEB1BA"
                d="M39.02 20.297c-.54 1.54-1.118 3.921-1.315 4.644l-.908.107a35.842 35.842 0 0 0-.703 4.816c-.072-1.819-.132-3.802-.112-5.19v-.037a13.288 13.288 0 0 1 3.038-4.34ZM23.199 25.13h-.053a4.082 4.082 0 0 1-.98-.132c0-.21.086-3.802.908-5.525a23.071 23.071 0 0 0-.066 3.168c.04.672.112 1.54.19 2.49ZM35.54 14.329c0 .038 0 .082-.045.126a13.302 13.302 0 0 1-4.603.856 5.829 5.829 0 0 1-3.886-1.394c1.098-.247 2.236-.5 3.025-.634.013.254.057.505.131.748a1 1 0 0 0 .486.549c.228.117.494.147.744.084.848-.12 1.13-.506 1.13-.582v-.362l3.019.609Z" />
            <path fill="#fff"
                d="M36.258 33.221a29.83 29.83 0 0 1-6.325.634 31.255 31.255 0 0 1-5.879-.545v-.228c4.037.772 8.195.738 12.217-.101a.618.618 0 0 0-.013.24ZM36.383 34.691a36.583 36.583 0 0 1-5.918.551v7.717a.103.103 0 0 1-.035.079.112.112 0 0 1-.083.03.116.116 0 0 1-.08-.032.106.106 0 0 1-.032-.077v-7.71h-.657a27.519 27.519 0 0 1-5.333-.425v-.234c2.032.368 4.101.512 6.168.43a35.962 35.962 0 0 0 5.983-.544c-.033.063-.026.14-.013.215Z" />
            <path fill="#F1B5AB"
                d="M36.824 7.562a2.07 2.07 0 0 1-.715.802 2.176 2.176 0 0 1-1.034.351l-.04.14c-.17.525-.841 2.394-2.32 3.23a3.155 3.155 0 0 1-1.599.412 3.59 3.59 0 0 1-1.104-.19c-2.091-.722-2.788-3.294-2.788-3.294h-.066c-.993 0-1.374-1.109-1.374-2.028 0-.223.024-.446.072-.665.027-.116.07-.229.125-.336.098-.19.23-.304.388-.291.585.063.71.95.736 1.457a3.181 3.181 0 0 0 0 .355s0-.057.046-.152c.151-.494.618-2.04 1.006-2.915.474-1.051.599-1.317 1.085-1.127.487.19 3.498.576 4.011.304.465.222.841.585 1.072 1.033.084.169.159.342.224.52.164.443.295.905.394 1.266l.04.178c.092.405.138.684.138.684s.453-1.267.992-1.426a.68.68 0 0 1 .224 0c.473.133.868.767.487 1.692Z" />
            <path fill="#2F2F2F"
                d="M36.35 5.934a.683.683 0 0 0-.224 0c-.539.133-.992 1.425-.992 1.425a12.953 12.953 0 0 0-.369-1.634 7.64 7.64 0 0 0-.184-.545 2.56 2.56 0 0 0-.223-.52 2.34 2.34 0 0 0-1.105-1.045c-.513.273-3.531-.114-4.011-.304s-.611.076-1.052 1.147c-.19.43-.401 1.032-.592 1.584-.256.785-.46 1.482-.46 1.482V7.17c0-.506-.151-1.393-.737-1.457-.157 0-.289.102-.387.292-.061.104-.103.218-.125.335-.191-.36.039-1.203.453-2.103.125-.285.276-.57.428-.849.657-1.178 1.453-1.73 2.104-1.54.16-.462.45-.872.838-1.185A2.792 2.792 0 0 1 31.07.074a4.5 4.5 0 0 1 2.486.356 4.3 4.3 0 0 1 1.867 1.62c.406.636.673 1.345.782 2.085a9.4 9.4 0 0 1 .145 1.799Z" />
            <path fill="#983222" d="M27.104 7.15a3.234 3.234 0 0 0 0 .355s.007-.146 0-.355Z" />
            <path fill="#1E2D58"
                d="M23.094 74.783a7.047 7.047 0 0 0-3.564 1.571s2.735.077 3.991 0a8.403 8.403 0 0 0-.427-1.57ZM41.182 74.992s.599-.544 1.934-.19c.408.123.785.328 1.105.602.32.275.575.612.749.988h-3.478l-.31-1.4Z" />
            <path fill="#F1B5AB"
                d="M22.87 33.494c.017.268.054.535.112.798-1.282-.24-3.985-2.027-3.985-2.027a5.215 5.215 0 0 1-.302-1.198 11.228 11.228 0 0 1-.125-1.9c0-2.028.197-4.607.854-5.753a6.438 6.438 0 0 0 2.742 1.533c.32.084.649.129.98.133.217.735-.079 3.732-.112 4.01a3.8 3.8 0 0 1 1.158 1.014 4.08 4.08 0 0 0-1.072 1.546 3.949 3.949 0 0 0-.25 1.844Z" />
            <path fill="#212A60"
                d="M25.626 17.585c-.053.97-.086 1.964-.119 2.794l-2.498.108c.046-.982.144-1.901.263-2.775a5.903 5.903 0 0 1 2.354-.127ZM36.737 17.623a72.3 72.3 0 0 0-.361 2.68c-.592 0-1.486-.089-2.144-.158.105-.884.256-1.761.454-2.63.685.003 1.37.039 2.051.108Z" />
            <path fill="#fff"
                d="M25.783 32.759a.114.114 0 0 1-.07-.022.107.107 0 0 1-.041-.06c-.336-1.49-.71-7.793-.73-8.066a.102.102 0 0 1 .007-.044.109.109 0 0 1 .065-.063.116.116 0 0 1 .046-.007h1.71c2.515.024 5.03-.11 7.528-.399a.121.121 0 0 1 .092 0 .125.125 0 0 1 .04.082l.263 7.914c0 .028-.01.055-.03.076a.12.12 0 0 1-.075.038l-8.798.55h-.007Zm-.605-8.027c.053.874.395 6.335.697 7.818l8.588-.545-.257-7.685a62.67 62.67 0 0 1-7.436.412h-1.592Z" />
            <path fill="#AEB1BA"
                d="M36.823 25.163a.119.119 0 0 1-.07-.05.11.11 0 0 1-.015-.084c.052-.177.118-.45.197-.779.355-1.489 1.026-4.264 1.749-5.297a.118.118 0 0 1 .158-.032.11.11 0 0 1 .049.07.107.107 0 0 1-.016.083c-.704 1.001-1.362 3.75-1.717 5.227-.085.33-.15.633-.197.78a.105.105 0 0 1-.05.069.115.115 0 0 1-.088.013Z" />
            <path fill="#F1B5AB"
                d="M32.714 12.06c0 .247-.066.634-.105.989 0 .228-.046.45-.066.633-.02.184 0 .336 0 .361 0 .026-.283.463-1.131.583a1.06 1.06 0 0 1-.744-.084 1 1 0 0 1-.486-.55 3.105 3.105 0 0 1-.125-.665v-.988c.355.12.729.185 1.105.19a3.146 3.146 0 0 0 1.552-.469Z" />
            <path fill="#F5948D"
                d="M32.714 12.06c0 .247-.066.634-.106.989-.832.3-1.753.28-2.57-.057v-.71c.354.12.727.185 1.104.19a3.154 3.154 0 0 0 1.572-.412ZM27.158 9.013c-.993 0-1.374-1.109-1.374-2.028 0-.223.024-.446.072-.665.027-.116.07-.229.125-.336.098-.19.23-.304.388-.291.585.063.71.95.736 1.457a3.181 3.181 0 0 0 0 .355s0-.057.046-.152a7.36 7.36 0 0 0 .007 1.66ZM36.823 7.562a2.07 2.07 0 0 1-.715.802 2.176 2.176 0 0 1-1.034.351l-.04.14a6.109 6.109 0 0 0-.039-2.167c.092.405.138.684.138.684s.454-1.267.993-1.426a.68.68 0 0 1 .224 0c.46.057.855.691.473 1.616ZM23.035 29.116a1.64 1.64 0 0 0-.71.171 29.865 29.865 0 0 0-.159-4.314c.32.083.65.128.98.133.217.734-.079 3.731-.111 4.01ZM22.982 34.292c-1.282-.24-3.984-2.027-3.984-2.027a5.213 5.213 0 0 1-.303-1.198 12.116 12.116 0 0 0 4.176 2.414c.016.273.053.544.111.811Z" />
            <path fill="#F1B5AB"
                d="M41.86 24.18a32.677 32.677 0 0 1-1.124 4.683 90.647 90.647 0 0 1-1.625 4.58s0 .767-1.019 3.32a17.794 17.794 0 0 1-1.676 3.25 7.095 7.095 0 0 0-.757-2.09 3.9 3.9 0 0 0-1.23-1.528 2.078 2.078 0 0 0-.512-.26 19.603 19.603 0 0 1 2.012-3.54s.046-1.002.19-2.725c.126-1.618.36-3.227.704-4.815l.914-.108a23.366 23.366 0 0 0 4.123-.767Z" />
            <path fill="#F5948D"
                d="M37.737 24.947a48.983 48.983 0 0 0-1.354 8.18l-1.973 3.269a2.077 2.077 0 0 0-.513-.26 19.597 19.597 0 0 1 2.012-3.542s.046-1 .191-2.724c.125-1.618.36-3.227.704-4.815l.933-.108Z" />
            <path fill="#1E1724"
                d="M29.781 7.144c0 .317-.092.576-.204.576-.112 0-.21-.26-.21-.576 0-.317.092-.577.21-.577.119 0 .204.254.204.577ZM33.482 7.144c0 .317-.098.576-.21.576-.112 0-.21-.26-.21-.576 0-.317.092-.577.21-.577s.21.254.21.577Z" />
            <path fill="#983222"
                d="M32.017 9.406a3.957 3.957 0 0 1-.658-.064.061.061 0 0 1-.072-.027.056.056 0 0 1 .018-.073.06.06 0 0 1 .054-.007c.452.113.93.088 1.368-.07a5.622 5.622 0 0 1-.796-2.503c0-.015.005-.029.014-.04a.066.066 0 0 1 .039-.023.067.067 0 0 1 .038.016c.01.009.018.021.02.035 0 0 .159 1.748.816 2.496a.068.068 0 0 1 0 .038.05.05 0 0 1 0 .038 1.43 1.43 0 0 1-.841.184ZM35.455 8.056a.053.053 0 0 1-.047-.041.049.049 0 0 1 .001-.022 4.027 4.027 0 0 1 .743-1.464.06.06 0 0 1 .077-.003c.012.008.02.02.022.034a.055.055 0 0 1-.007.039c-.336.42-.582.9-.723 1.413a.057.057 0 0 1-.024.034.061.061 0 0 1-.042.01ZM26.69 8.139a.067.067 0 0 1-.038-.023.062.062 0 0 1-.014-.04 4.373 4.373 0 0 0-.373-1.741.057.057 0 0 1 .001-.026.057.057 0 0 1 .034-.038.06.06 0 0 1 .072.02 4.469 4.469 0 0 1 .372 1.81.057.057 0 0 1-.021.026.06.06 0 0 1-.032.012Z" />
            <path fill="#983222"
                d="M26.473 7.682a.237.237 0 0 1-.131-.031.166.166 0 0 1-.072-.146c0-.234.282-.406.295-.412a.054.054 0 0 1 .072 0 .05.05 0 0 1 0 .076s-.236.14-.236.317v.05h.243a.054.054 0 0 1 .062.013.05.05 0 0 1 .01.02.048.048 0 0 1 0 .041.05.05 0 0 1-.033.028.611.611 0 0 1-.21.044ZM35.824 7.74a.787.787 0 0 1-.283-.064.05.05 0 0 1-.014-.035.05.05 0 0 1 .014-.035.052.052 0 0 1 .05-.036c.008 0 .016.002.023.005.072.031.282.095.355 0 .072-.095-.086-.254-.204-.368a.053.053 0 0 1-.012-.058.056.056 0 0 1 .073-.03.056.056 0 0 1 .018.012c.059.057.355.355.21.513a.266.266 0 0 1-.23.095Z" />
            <path fill="#2F2F2F"
                d="M28.374 6.086a.282.282 0 0 1 .072-.057c.072-.045.147-.085.224-.12.104-.053.212-.1.322-.14l.19-.044c.068-.019.136-.034.205-.045h.203c.068-.006.137-.006.204 0 .119-.01.237-.01.355 0 .21.045.336.083.336.083.021.006.04.02.051.039a.08.08 0 0 1 .008.062.09.09 0 0 1-.03.04.094.094 0 0 1-.049.017 3.133 3.133 0 0 1-.322 0 2.975 2.975 0 0 0-.322 0h-.369l-.184.038-.177.038c-.112.038-.23.057-.316.095l-.217.07h-.085a.088.088 0 0 1-.095-.022.084.084 0 0 1-.017-.029.074.074 0 0 1 0-.088l.013.063ZM32.174 5.908l.08-.057.078-.07a.925.925 0 0 1 .119-.056 2.37 2.37 0 0 1 .341-.19l.21-.057a.87.87 0 0 1 .218-.038h.223c.073-.007.145-.007.217 0h.204a.747.747 0 0 1 .171.038c.21.07.342.126.342.126a.076.076 0 0 1 .055.076.074.074 0 0 1-.009.032.083.083 0 0 1-.031.037.088.088 0 0 1-.048.014h-.335a.682.682 0 0 0-.165 0h-.17a.639.639 0 0 0-.224-.038h-.19c-.132 0-.25.057-.375.076-.125.019-.23.063-.316.101l-.132.044-.111.045h-.099a.081.081 0 0 1-.087-.033.075.075 0 0 1-.012-.03.092.092 0 0 1 0-.083l.046.063Z" />
            <path fill="#fff"
                d="M33.404 9.748a3.95 3.95 0 0 1-.243.633c-.283.634-.835 1.42-1.75 1.458-.349-.01-.688-.113-.98-.298a1.847 1.847 0 0 1-.676-.748 3.402 3.402 0 0 1-.335-.741c.085-.032 2.715.108 3.984-.304Z" />
            <path fill="#983222"
                d="M28.643 36.49a2.62 2.62 0 0 1-1.4-.475.057.057 0 0 1-.018-.04.056.056 0 0 1 .018-.042.06.06 0 0 1 .079 0c1.091.697 1.755.386 1.762.38a.06.06 0 0 1 .079 0 .05.05 0 0 1 0 .07.997.997 0 0 1-.52.107Z" />
            <path fill="#761815" d="M31.09 39.937c.149-.002.298.01.446.032a.681.681 0 0 1-.447-.032Z" />
            <path fill="#2F2F2F"
                d="M27.565 6.022c-.256.786-.46 1.483-.46 1.483V7.15c0-.507-.151-1.394-.736-1.457-.158 0-.29.101-.388.291-.06.105-.103.218-.125.336-.19-.36.04-1.204.454-2.103a4.876 4.876 0 0 0 1.255 1.805ZM36.35 5.934a.683.683 0 0 0-.224 0c-.539.133-.992 1.425-.992 1.425a12.916 12.916 0 0 0-.369-1.634 8.83 8.83 0 0 0 1.493-1.578c.087.592.118 1.19.092 1.787Z" />
            <path fill="#B75349" d="M32.26 77.216Z" />
            <path fill="#1DA8B7"
                d="M32.26 77.216a.4.4 0 0 0-.04-.114c-.144-.392-.466-.785-.71-.71-.427.14.185 1.648.658 1.407.05-.04.09-.09.118-.146a.716.716 0 0 0-.026-.437Z" />
            <path fill="#732723"
                d="M38.88 76.95a.309.309 0 0 0-.052-.101l.053.102ZM40.809 76.824a.317.317 0 0 0-.073-.165s.026.07.073.165Z" />
            <path fill="#A6D6B4"
                d="M41.183 75.271v.78h-.138c-.828-.108-3.912.348-6.233.728-1.164.19-2.144.368-2.538.43l-.046-.107c-.152-.392-.48-.785-.724-.71a20.91 20.91 0 0 1 1.973-.545 25.59 25.59 0 0 1 7.706-.576Z" />
            <path fill="#732723" d="M32.273 77.653a.424.424 0 0 1-.118.146.25.25 0 0 0 .118-.146Z" />
            <path fill="#63C4BA"
                d="M34.812 76.779c-1.164.19-2.144.368-2.538.43l-.046-.107c-.152-.393-.48-.785-.724-.71a20.94 20.94 0 0 1 1.973-.545c.401.317.907.653 1.335.932Z" />
            <path fill="#D0918E"
                d="M36.403 75.829h-.06a.359.359 0 0 1-.218-.08.334.334 0 0 1-.117-.193l-3.873-20.692-4.682-24.93a.318.318 0 0 1 .016-.285.348.348 0 0 1 .39-.16.344.344 0 0 1 .224.187c.02.045.03.094.028.143l4.918 26.147 3.65 19.482a.31.31 0 0 1-.055.247.333.333 0 0 1-.221.134Z" />
            <path fill="#B97B7B"
                d="M36.403 75.829h-.06a.359.359 0 0 1-.217-.08.334.334 0 0 1-.118-.193l-3.873-20.692.901 1.102 3.65 19.483a.314.314 0 0 1-.058.248.332.332 0 0 1-.225.132Z" />
            <path fill="#FFC40C"
                d="M41.34 77.102c-.25.171-.434-.089-.526-.278a.373.373 0 0 0-.066-.165.894.894 0 0 0 .066.165.376.376 0 0 1-.072.278c-.171.254-1.164-.26-1.164-.26a.492.492 0 0 1-.076.234.517.517 0 0 1-.18.172c-.185.114-.356-.146-.441-.298a.3.3 0 0 0-.046-.108l.046.108c.046.127.04.342-.388.47a1.005 1.005 0 0 1-.993-.172.64.64 0 0 1-.207.248.672.672 0 0 1-.306.12c-.427.107-.907-.368-.907-.368a.698.698 0 0 1-.197.456.476.476 0 0 1-.178.12c-.349.146-.855-.234-.907-.279-.053-.044.072.222-.658.387-.44.108-.907.061-1.315-.133a.53.53 0 0 1-.697 0 .24.24 0 0 0 .118-.146.61.61 0 0 0 0-.443c.428-.07 1.52-.266 2.801-.475 2.289-.368 5.175-.786 5.97-.684h.139s.546.798.184 1.051Z" />
            <path fill="#F7981D"
                d="M35.876 77.704a.47.47 0 0 1-.177.12c-.349.146-.855-.234-.908-.279-.052-.044.072.222-.657.387-.441.108-.908.061-1.316-.133a.53.53 0 0 1-.697 0 .25.25 0 0 0 .119-.146.613.613 0 0 0 0-.444c.427-.069 1.519-.266 2.8-.474.243.35.523.675.836.969Z" />
            <path fill="#0F74BA"
                d="M29.67 34.235a.355.355 0 0 1-.112.076l.04.057a.928.928 0 0 1-.093 1.02v.114c.035.098.052.2.053.304a.584.584 0 0 1-.138.345.621.621 0 0 1-.323.2c-.085 0-.059.634-1.078.552-1.02-.083-2.222-1.4-2.222-1.4-1.105-.577-2.815-1.236-2.815-1.236a4.45 4.45 0 0 1-.105-.742 3.955 3.955 0 0 1 .246-1.845 4.086 4.086 0 0 1 1.07-1.55s.038-.045.038-.057l2.447 1.812c1.795-1.369 2.452-.989 2.932-.248a2.108 2.108 0 0 1 .046 1.724l-.04.101c.277.425.165.646.053.773Z" />
            <path fill="#0B5D96"
                d="M29.505 35.502a2.354 2.354 0 0 1-.724.114 2.482 2.482 0 0 1-1.61-.633.06.06 0 0 1-.023-.016.056.056 0 0 1-.014-.05.059.059 0 0 1 .063-.044.06.06 0 0 1 .046.027c.294.27.66.455 1.057.537.396.081.809.056 1.191-.074l.014.139ZM29.557 34.292l.04.057c-.07.008-.14.008-.21 0a2.629 2.629 0 0 1-1.579-.69.058.058 0 0 1-.036-.04.056.056 0 0 1 .013-.05.06.06 0 0 1 .05-.02c.009 0 .018.003.026.008a.057.057 0 0 1 .02.02c.953.74 1.551.69 1.788.633a.353.353 0 0 1-.112.082ZM29.656 33.386l-.04.101a2.336 2.336 0 0 1-1.163-1.21.056.056 0 0 1 0-.076.054.054 0 0 1 .072 0c.208.519.612.942 1.13 1.185Z" />
            <path fill="#0B5D96"
                d="M29.558 35.806a.582.582 0 0 1-.138.345.62.62 0 0 1-.323.2c-.085 0-.059.634-1.078.551-1.02-.082-2.222-1.4-2.222-1.4-1.105-.576-2.815-1.235-2.815-1.235a4.463 4.463 0 0 1-.105-.742c.881.564 4.478 2.839 6.68 2.281Z" />
            <path fill="#0F74BA"
                d="M36.429 40.172s-.197.26-.579.728l-.177.216c-.27.33-.605.728-1.006 1.19-1.17 1.35-2.308 2.687-3.42 2.991-.86.235-1.499.07-1.538-.272a.336.336 0 0 1 .066-.26.186.186 0 0 1 .039-.07l-.092-.038a.733.733 0 0 1-.414-.373.692.692 0 0 1-.02-.545l-.079-.076c-.149-.13-.26-.294-.324-.477a1.077 1.077 0 0 1-.038-.569.187.187 0 0 1 0-.05v-.096a.988.988 0 0 1-.17-1.23 2.803 2.803 0 0 1 1.03-.953 2.93 2.93 0 0 1 1.83-.32s1.137-1.9 1.558-2.667a.135.135 0 0 0 0-.05l.112-.19c.329-.602.486-.963.486-.963.065.012.129.029.191.05.204.073.394.176.566.305.511.394.915.903 1.177 1.482.354.642.606 1.332.75 2.046a.104.104 0 0 1 0 .045c.02.047.037.096.052.146Z" />
            <path fill="#0B5D96"
                d="M30.274 41.838a.05.05 0 0 1-.005.04.052.052 0 0 1-.034.023 3.582 3.582 0 0 0-1.388.71.187.187 0 0 1 0-.05v-.09c.4-.334.871-.58 1.381-.715a.054.054 0 0 1 .051.026.05.05 0 0 1-.005.056ZM30.82 42.896a.056.056 0 0 1-.01.04.059.059 0 0 1-.036.023 2.66 2.66 0 0 0-1.5.78l-.079-.076c.412-.44.966-.733 1.572-.83a.06.06 0 0 1 .05.04.057.057 0 0 1 .003.023ZM30.958 44.207a2.23 2.23 0 0 1-1.184.558.188.188 0 0 1 .04-.07l-.092-.038c.436-.054.844-.24 1.164-.532a.054.054 0 0 1 .079 0 .057.057 0 0 1 .015.043.056.056 0 0 1-.022.04ZM34.483 36.44c-.658.817-2.499 3.383-2.946 3.516 0 0 1.138-1.9 1.559-2.667a.135.135 0 0 0 0-.05l.111-.19c.329-.603.487-.964.487-.964a2.152 2.152 0 0 1 .789.355Z" />
            <path fill="#0B5D96"
                d="M36.429 40.172s-.198.26-.579.728l-.178.215c-.27.33-.604.73-1.006 1.192-1.17 1.35-2.308 2.686-3.419 2.99-.861.235-1.499.07-1.538-.272l1.768-.577c1.92-.633 4.143-3.402 4.938-4.48a.103.103 0 0 1 0 .045c.008.053.012.105.014.159Z" />
            <path fill="#3C3C4E" d="M10.368 58.449h1.05v.665h-1.05v-.665Z" />
            <path fill="#F7941E"
                d="M3.235 60.285h5.921v-3.007h-5.92a1.54 1.54 0 0 0-1.081.44 1.49 1.49 0 0 0 0 2.126c.286.282.675.44 1.08.44Z" />
            <path fill="#fff"
                d="M9.033 60.163v-2.767H3.235a1.424 1.424 0 0 0-.994.405 1.383 1.383 0 0 0-.412.978 1.367 1.367 0 0 0 .412.979 1.42 1.42 0 0 0 .994.405h5.798Z"
                opacity=".2" />
            <path fill="#fff"
                d="M3.276 57.502a1.424 1.424 0 0 0-1.135.57 1.372 1.372 0 0 0-.201 1.239 1.364 1.364 0 0 1 .129-1.297 1.422 1.422 0 0 1 1.166-.615h5.798v.103H3.276Z"
                opacity=".2" />
            <path fill="#F7941E"
                d="M6.171 64.242H3.41a.943.943 0 0 0-.866.57.91.91 0 0 0-.07.353v.72h4.633v-.72a.91.91 0 0 0-.273-.653.942.942 0 0 0-.662-.27Z" />
            <path fill="#fff"
                d="M2.594 65.167v.599h4.39v-.6a.797.797 0 0 0-.24-.567.822.822 0 0 0-.577-.236H3.41a.822.822 0 0 0-.577.236.797.797 0 0 0-.24.568Z"
                opacity=".2" />
            <path fill="#3C3C4E"
                d="M7.106 65.886H2.473v1.51c0 .243.099.477.274.65.175.173.413.27.661.27h2.763a.953.953 0 0 0 .661-.27.921.921 0 0 0 .274-.65v-1.51Z" />
            <path fill="#fff"
                d="M6.984 66.028H2.6v1.32c0 .223.09.438.252.597.16.158.38.247.607.247h2.665c.228 0 .446-.089.607-.247a.84.84 0 0 0 .252-.598v-1.32ZM3.42 64.997v.767h2.741v-.767a.623.623 0 0 0-.188-.448.647.647 0 0 0-.455-.186H4.062a.649.649 0 0 0-.594.392.624.624 0 0 0-.048.242Z"
                opacity=".2" />
            <path fill="#fff"
                d="M6.16 66.028H3.416v1.497c0 .177.072.347.2.472.127.126.3.197.48.197H5.48c.18 0 .353-.07.48-.197a.662.662 0 0 0 .2-.472v-1.497Z"
                opacity=".2" />
            <path fill="#fff" d="M2.597 66.026h4.387v.14H2.597v-.14Z" opacity=".2" />
            <path fill="#3C3C4E"
                d="M10.582 57.566H9.156v2.43h1.426a.218.218 0 0 0 .153-.062.212.212 0 0 0 .064-.151v-2.004a.212.212 0 0 0-.064-.15.218.218 0 0 0-.153-.063Z" />
            <path fill="#fff" d="M9.326 57.886h1.358v.764H9.326v-.764Z" opacity=".2" />
            <path fill="#BABEC0" d="M13.327 58.94h3.568l.127-.159-.127-.16h-3.568v.32Z" />
            <path fill="#3C3C4E"
                d="M3.326 59.25h4.512a.09.09 0 0 0 .09-.09.09.09 0 0 0-.026-.062.09.09 0 0 0-.064-.026H3.326a.09.09 0 0 0-.09.09c0 .023.009.046.026.063a.09.09 0 0 0 .064.026ZM2.7 58.937h5.138c.024 0 .047-.01.064-.026a.087.087 0 0 0 .027-.063.087.087 0 0 0-.027-.063.09.09 0 0 0-.064-.026H2.7a.09.09 0 0 0-.09.09c0 .023.009.046.026.062.017.017.04.026.064.026ZM2.7 58.625h5.138a.09.09 0 0 0 .09-.09.088.088 0 0 0-.026-.062.09.09 0 0 0-.064-.026H2.7a.09.09 0 0 0-.09.088c0 .024.009.047.026.064.017.016.04.026.064.026ZM3.326 58.311h4.512a.09.09 0 0 0 .064-.026.088.088 0 0 0 0-.126.092.092 0 0 0-.064-.026H3.326a.092.092 0 0 0-.064.026.088.088 0 0 0 0 .126.09.09 0 0 0 .064.026ZM3.797 60.285h1.35v3.395h-1.35v-3.395Z" />
            <path fill="#F15A29" d="M5.325 60.285H6.47v1.027H5.325v-1.027Z" />
            <path fill="#F7941E" d="M5.146 63.68h.287l.764-3.395h-1.05v3.395Z" />
            <path fill="#3C3C4E" d="M3.238 60.285h1.349v.313h-1.35v-.313Z" />
            <path fill="#F7941E" d="M3.582 63.68H6v.563H3.582v-.563Z" />
            <path fill="#fff" d="M3.704 64.123v-.321h2.172v.321H3.704Z" opacity=".2" />
            <path fill="#3C3C4E" d="M11.084 57.88h1.642v1.804h-1.642v-1.805Z" />
            <path fill="#fff" d="M11.265 58.268h1.461v1.028h-1.461v-1.028Z" opacity=".2" />
            <path fill="#BABEC0" d="m12.726 59.683.4-.225v-1.354l-.4-.225v1.804Z" />
            <path fill="#fff" d="m12.726 59.295.4-.128v-.772l-.4-.127v1.027Z" opacity=".2" />
            <path fill="#3C3C4E" d="m13.127 59.05.4-.067v-.404l-.4-.067v.539Z" />
            <path fill="#CFD2D3"
                d="M16.69 58.963h.206l-.175-.364h-.206l.176.364ZM16.368 58.963h.205l-.175-.364h-.206l.176.364ZM16.044 58.963h.205l-.175-.364h-.205l.175.364ZM15.72 58.963h.205l-.175-.364h-.205l.175.364ZM15.396 58.963h.206l-.176-.364h-.205l.175.364ZM15.073 58.963h.205l-.175-.364h-.205l.175.364ZM14.75 58.963h.204l-.175-.364h-.204l.175.364ZM14.426 58.963h.205l-.175-.364h-.205l.175.364Z" />
            <path fill="#000" d="M13.65 58.865h3.257l.115-.084-.115-.084h-3.258v.168Z" opacity=".2" />
            <path fill="#000"
                d="M5.146 60.285h1.05l-.081.365c-.474 0-.969.22-.969.408 0 0-.222.9-.56.9-.337 0-.522.349-.522.682 0 .333.33 1.04.33 1.04h-.597v-3.082h-.562v-.313h1.911ZM3.235 59.815h5.921v.47h-5.92c-.406 0-.795-.159-1.081-.441a1.49 1.49 0 0 1-.428-1.297c.057.353.24.675.516.908.277.233.628.36.992.36Z"
                opacity=".15" />
            <path fill="#3C3C4E"
                d="M.6 69.446v7.024c0 .287.117.563.323.766.207.204.487.318.779.318h.836v.172h.68v-.172h.414v.172h.676v-.172h.418v.172h.676v-.172h4.916v.172h.676v-.172h.418v.172h.676v-.172h.418v.172h.676v-.172h.797c.292 0 .572-.115.779-.318.206-.203.322-.479.322-.766v-7.024H.6Z" />
            <path fill="#1C1F23"
                d="M13.979 77.268h-.797v.057h-.676v-.057h-.418v.057h-.676v-.057h-.418v.057h-.676v-.057H5.402v.057h-.676v-.057h-.418v.057h-.676v-.057h-.414v.057h-.68v-.057h-.836a2.395 2.395 0 0 1-.873-.14 1.097 1.097 0 0 0 .873.421h.836v.173h.68v-.172h.414v.172h.676v-.172h.418v.172h.676v-.172h4.916v.172h.676v-.172h.418v.172h.676v-.172h.418v.172h.676v-.172h.797a1.11 1.11 0 0 0 .873-.423c-.28.101-.576.149-.873.141Z"
                opacity=".3" />
            <path fill="#3C3C4E"
                d="M10.704 68.675H4.977v-1.563a.977.977 0 0 1 .294-.694 1.01 1.01 0 0 1 .707-.288H9.71c.265.001.519.105.706.29a.978.978 0 0 1 .292.695l-.004 1.56Zm-5.298-.423h4.869v-1.14a.56.56 0 0 0-.168-.395.575.575 0 0 0-.4-.164H5.974a.578.578 0 0 0-.404.164.56.56 0 0 0-.168.398l.004 1.137Z" />
            <path fill="#fff"
                d="M9.707 66.13H5.974c-.265 0-.52.104-.708.289a.978.978 0 0 0-.293.697v1.559h.15v-1.352c0-.541.424-.982.945-.982h3.537c.521 0 .945.44.945.986v1.348h.15v-1.563a.978.978 0 0 0-.291-.692 1.01 1.01 0 0 0-.702-.29Z"
                opacity=".05" />
            <path fill="#F15A29"
                d="M1.473 67.989h12.735c.231 0 .453.09.617.251.163.16.255.38.255.607v.599H.6v-.599c0-.227.093-.446.256-.607a.879.879 0 0 1 .617-.251Z" />
            <path fill="#fff"
                d="M1.336 68.252h13.008a.785.785 0 0 1 .724.465.853.853 0 0 0-.294-.519.878.878 0 0 0-.566-.206H1.473a.88.88 0 0 0-.566.208.855.855 0 0 0-.292.52.781.781 0 0 1 .29-.339.801.801 0 0 1 .43-.129Z"
                opacity=".2" />
            <path fill="#1C1F23"
                d="M.84 69.21H14.84c.064 0 .124.026.169.07.045.043.07.103.07.166H.6c0-.063.026-.123.07-.167a.24.24 0 0 1 .17-.069ZM7.84 69.974H.6v1.646c0-.316.698-.76 2.237-.76h10.01c1.54 0 2.237.444 2.237.76v-1.646H7.84Z"
                opacity=".3" />
            <path fill="#3C3C4E"
                d="M.536 70.501h14.609a.54.54 0 0 0 .379-.154.524.524 0 0 0 0-.747.54.54 0 0 0-.38-.154H.537a.54.54 0 0 0-.379.154.524.524 0 0 0 .174.86c.065.028.135.041.205.041Z" />
            <path fill="#fff"
                d="M15.145 69.446H.536a.54.54 0 0 0-.379.154.524.524 0 0 0-.136.521.54.54 0 0 1 .515-.38h14.609a.54.54 0 0 1 .514.38.513.513 0 0 0-.135-.521.54.54 0 0 0-.38-.154Z"
                opacity=".2" />
            <path fill="#F15A29"
                d="M13.646 67.555h.112c.075 0 .146.03.2.082a.274.274 0 0 1 .082.196v.269a.086.086 0 0 1-.086.086h-.501a.091.091 0 0 1-.034-.007.101.101 0 0 1-.027-.019.09.09 0 0 1-.02-.028.081.081 0 0 1-.006-.032v-.27c0-.072.03-.143.082-.194a.285.285 0 0 1 .198-.083ZM12.552 67.555h.112c.074.002.145.03.197.083a.274.274 0 0 1 .081.195v.269a.086.086 0 0 1-.086.085h-.5a.086.086 0 0 1-.087-.086v-.268a.27.27 0 0 1 .083-.197.286.286 0 0 1 .2-.081ZM11.458 67.555h.112c.075 0 .146.03.2.082a.274.274 0 0 1 .082.196v.269a.088.088 0 0 1-.053.08.091.091 0 0 1-.034.005h-.5a.091.091 0 0 1-.033-.006.088.088 0 0 1-.053-.08v-.268c0-.073.028-.144.08-.195a.285.285 0 0 1 .199-.083ZM4.147 67.555h.112c.075 0 .147.03.2.082a.274.274 0 0 1 .082.196v.269a.088.088 0 0 1-.053.08.091.091 0 0 1-.033.005h-.5a.091.091 0 0 1-.034-.006.088.088 0 0 1-.053-.08v-.268c0-.073.029-.144.081-.195a.285.285 0 0 1 .198-.083ZM3.056 67.555h.112c.075 0 .147.03.2.082a.274.274 0 0 1 .082.196v.269a.083.083 0 0 1-.007.033.083.083 0 0 1-.048.046.096.096 0 0 1-.034.006h-.5a.086.086 0 0 1-.087-.086v-.268a.273.273 0 0 1 .082-.197.285.285 0 0 1 .2-.08ZM1.962 67.555h.112c.074 0 .146.03.199.082a.274.274 0 0 1 .082.196v.269a.088.088 0 0 1-.053.08.091.091 0 0 1-.033.005h-.5a.091.091 0 0 1-.034-.006.088.088 0 0 1-.053-.08v-.268c0-.074.03-.144.082-.196a.285.285 0 0 1 .198-.082ZM9.323 65.95H6.358a.25.25 0 0 0-.252.249v.285a.25.25 0 0 0 .252.248h2.965a.25.25 0 0 0 .251-.248V66.2a.25.25 0 0 0-.251-.248Z" />
            <path fill="#fff"
                d="M9.388 66.202H6.292a.099.099 0 0 1-.068-.028.095.095 0 0 1 .068-.162h3.096c.026 0 .05.01.069.028a.095.095 0 0 1 .028.067c0 .025-.01.05-.028.067a.101.101 0 0 1-.069.028Z"
                opacity=".2" />
            <path fill="#1C1F23"
                d="M9.538 66.072v.248a.232.232 0 0 1-.07.165.24.24 0 0 1-.168.068H6.38a.239.239 0 0 1-.168-.069.23.23 0 0 1-.069-.164v-.248a.24.24 0 0 0-.036.127v.285c0 .066.026.129.074.175a.253.253 0 0 0 .177.073h2.964c.067 0 .131-.026.178-.072a.247.247 0 0 0 .075-.175v-.286a.248.248 0 0 0-.036-.127Z"
                opacity=".3" />
            <path fill="#fff"
                d="M9.067 71.263H6.614v5.363h2.453v-5.363ZM13.834 71.263H11.38v5.363h2.453v-5.363ZM4.339 71.263H1.886v5.363H4.34v-5.363Z"
                opacity=".05" />
        </g>
        <defs>
            <clipPath id="a">
                <path fill="#fff" d="M0 0h45v78H0z" />
            </clipPath>
        </defs>
    </symbol>
</svg>